<svg width="591" height="443" viewBox="0 0 591 443" fill="none" xmlns="http://www.w3.org/2000/svg">
<path d="M158.045 49.803H187.467V92.286C175.267 100.61 158.475 105.06 143.692 105.06C111.256 105.06 87.5742 83.387 87.5742 52.53C87.5742 21.672 111.256 0 144.409 0C164.216 0 180.147 6.889 190.337 19.375L168.665 38.464C162.35 31.144 155.03 27.413 146.132 27.413C131.205 27.413 121.733 37.029 121.733 52.53C121.733 67.6 131.206 77.647 145.702 77.647C149.864 77.647 153.883 76.929 158.045 75.207V49.803Z" fill="#CA2C92"/>
<path d="M393.569 102.763L393.282 56.9789L371.467 93.7209H356.54L334.725 58.5569V102.763H303.867V2.2959H331.711L364.435 55.8299L396.297 2.2959H424.141L424.428 102.763H393.569Z" fill="#51123B"/>
<path d="M472.553 132.6H39.4531V428H472.553V132.6Z" fill="#D9F9FA"/>
<path d="M135.18 257.891H105.18V300.558H135.18V257.891Z" fill="#CA2C92"/>
<path d="M256.317 258H178V282.307H226.151V342H256.196V282.307H256.317L267 268.653L256.317 258Z" fill="#AAAAAA"/>
<path d="M472 258H346V282.307H394.019V342H423.982V282.307H472V258Z" fill="#AAAAAA"/>
<path d="M304 258H256V282H304V258Z" fill="#AAAAAA"/>
<path d="M255.998 102.763L259.998 31.9999L255.998 20.5079L246.167 37.0289L225.643 2.2959H189.906L227.796 65.8769V102.763H255.998Z" fill="#CA2C92"/>
<path d="M266.837 2.2959L256 20.5079V102.763H261.67V66.3079L299.56 2.2959H266.837Z" fill="#51123B"/>
<path d="M256.306 428L267 389.465L256.306 348.459H196.486V194.714H256.306L267 145.529L256.306 101H6V194.714H27.2111V428H57.2879V194.714H166.409V428H256.306Z" fill="#666666"/>
<path d="M256 101V194.714H454.602V348.459H256V428H484.639V194.714H506V101H256Z" fill="#333333"/>
<path d="M0 413V443H256L266.667 432.333L256 413H0Z" fill="#CA2C92"/>
<path d="M512 413H256V443H512V413Z" fill="#51123B"/>
<path d="M555.528 95H547.472V55.8984H555.528V95ZM567.372 145H559.315L543.631 119.272V145H535.575V105.898H543.631L559.342 131.68V105.898H567.372V145ZM537.105 195V155.898H549.137C552.574 155.898 555.645 156.677 558.348 158.235C561.069 159.775 563.191 161.977 564.713 164.841C566.235 167.688 566.996 170.929 566.996 174.563V176.362C566.996 179.997 566.244 183.228 564.74 186.057C563.254 188.886 561.15 191.079 558.429 192.637C555.707 194.194 552.637 194.982 549.217 195H537.105ZM545.162 162.424V188.528H549.056C552.207 188.528 554.615 187.498 556.28 185.439C557.945 183.381 558.796 180.435 558.832 176.604V174.536C558.832 170.562 558.008 167.554 556.361 165.513C554.714 163.454 552.306 162.424 549.137 162.424H545.162ZM568.124 226.335C568.124 230.185 567.443 233.56 566.083 236.46C564.722 239.36 562.77 241.598 560.228 243.174C557.704 244.749 554.803 245.537 551.527 245.537C548.286 245.537 545.395 244.758 542.853 243.201C540.31 241.643 538.341 239.423 536.944 236.541C535.548 233.64 534.841 230.31 534.823 226.55V224.617C534.823 220.767 535.512 217.384 536.891 214.465C538.287 211.529 540.248 209.282 542.772 207.725C545.314 206.149 548.215 205.361 551.473 205.361C554.732 205.361 557.623 206.149 560.147 207.725C562.69 209.282 564.65 211.529 566.029 214.465C567.425 217.384 568.124 220.758 568.124 224.59V226.335ZM559.959 224.563C559.959 220.463 559.225 217.348 557.757 215.217C556.289 213.087 554.194 212.021 551.473 212.021C548.77 212.021 546.684 213.078 545.216 215.19C543.748 217.285 543.005 220.365 542.987 224.429V226.335C542.987 230.328 543.721 233.425 545.189 235.627C546.657 237.83 548.77 238.931 551.527 238.931C554.23 238.931 556.307 237.874 557.757 235.762C559.208 233.631 559.942 230.534 559.959 226.47V224.563ZM568.124 276.335C568.124 280.185 567.443 283.56 566.083 286.46C564.722 289.36 562.77 291.598 560.228 293.174C557.704 294.749 554.803 295.537 551.527 295.537C548.286 295.537 545.395 294.758 542.853 293.201C540.31 291.643 538.341 289.423 536.944 286.541C535.548 283.64 534.841 280.31 534.823 276.55V274.617C534.823 270.767 535.512 267.384 536.891 264.465C538.287 261.529 540.248 259.282 542.772 257.725C545.314 256.149 548.215 255.361 551.473 255.361C554.732 255.361 557.623 256.149 560.147 257.725C562.69 259.282 564.65 261.529 566.029 264.465C567.425 267.384 568.124 270.758 568.124 274.59V276.335ZM559.959 274.563C559.959 270.463 559.225 267.348 557.757 265.217C556.289 263.087 554.194 262.021 551.473 262.021C548.77 262.021 546.684 263.078 545.216 265.19C543.748 267.285 543.005 270.365 542.987 274.429V276.335C542.987 280.328 543.721 283.425 545.189 285.627C546.657 287.83 548.77 288.931 551.527 288.931C554.23 288.931 556.307 287.874 557.757 285.762C559.208 283.631 559.942 280.534 559.959 276.47V274.563ZM551.903 330.686H545.484V345H537.428V305.898H551.957C556.576 305.898 560.139 306.928 562.645 308.987C565.152 311.046 566.405 313.955 566.405 317.715C566.405 320.382 565.823 322.611 564.659 324.402C563.513 326.174 561.768 327.589 559.422 328.645L567.882 344.624V345H559.234L551.903 330.686ZM545.484 324.16H551.983C554.007 324.16 555.573 323.65 556.683 322.629C557.793 321.591 558.348 320.168 558.348 318.359C558.348 316.515 557.82 315.065 556.764 314.009C555.725 312.952 554.123 312.424 551.957 312.424H545.484V324.16ZM558.348 384.741C558.348 383.219 557.811 382.056 556.737 381.25C555.663 380.426 553.729 379.567 550.936 378.672C548.143 377.759 545.932 376.864 544.303 375.986C539.863 373.587 537.643 370.356 537.643 366.292C537.643 364.179 538.233 362.299 539.415 360.652C540.615 358.987 542.324 357.689 544.544 356.758C546.782 355.827 549.289 355.361 552.064 355.361C554.857 355.361 557.346 355.872 559.53 356.892C561.714 357.895 563.406 359.318 564.605 361.162C565.823 363.006 566.432 365.101 566.432 367.446H558.375C558.375 365.656 557.811 364.268 556.683 363.284C555.555 362.281 553.971 361.78 551.93 361.78C549.96 361.78 548.43 362.201 547.337 363.042C546.245 363.866 545.699 364.958 545.699 366.318C545.699 367.59 546.335 368.655 547.606 369.514C548.895 370.374 550.784 371.179 553.272 371.931C557.856 373.31 561.195 375.02 563.29 377.061C565.384 379.102 566.432 381.644 566.432 384.688C566.432 388.071 565.152 390.73 562.591 392.664C560.031 394.579 556.585 395.537 552.252 395.537C549.244 395.537 546.505 394.991 544.034 393.899C541.563 392.789 539.675 391.276 538.368 389.36C537.079 387.445 536.434 385.225 536.434 382.7H544.518C544.518 387.015 547.096 389.172 552.252 389.172C554.168 389.172 555.663 388.787 556.737 388.018C557.811 387.23 558.348 386.138 558.348 384.741Z" fill="black"/>
</svg>
