<svg width="591" height="422" viewBox="0 0 591 422" fill="none" xmlns="http://www.w3.org/2000/svg">
<path d="M480.5 415.089H31.5C18.245 415.089 7.5 405.189 7.5 392.976C7.5 389.922 10.186 387.447 13.5 387.447H498.5C501.814 387.447 504.5 389.922 504.5 392.976C504.5 405.189 493.755 415.089 480.5 415.089Z" fill="#CBC4CC"/>
<path d="M498.5 387.447H468.5C471.814 387.447 474.5 389.922 474.5 392.976C474.5 405.189 463.755 415.089 450.5 415.089H480.5C493.755 415.089 504.5 405.189 504.5 392.976C504.5 389.922 501.814 387.447 498.5 387.447Z" fill="#B5ADB6"/>
<path d="M145.276 151.514C154.015 140.92 159.022 127.571 158.457 113.119C157.247 82.1882 130.147 56.9354 96.5897 55.5036C59.2857 53.9114 28.4997 81.3073 28.4997 115.328C28.4997 128.959 33.4537 141.517 41.7787 151.58C43.1067 153.186 42.7327 155.471 40.9987 156.705C20.0017 171.641 6.69667 195.309 7.53767 221.817C8.83667 262.78 44.4147 296.408 88.8297 298.573C138.447 300.991 179.501 264.636 179.501 219.447C179.501 193.907 166.375 171.203 146.012 156.714C144.246 155.456 143.926 153.15 145.276 151.514V151.514Z" fill="#97DA7B"/>
<path d="M146.008 156.711C144.243 155.455 143.925 153.15 145.274 151.513C154.269 140.609 159.31 126.786 158.391 111.847C156.618 83.0232 132.371 59.2199 101.251 55.854C93.3478 54.9989 85.7028 55.49 78.5078 57.0555C106.351 63.1671 127.392 85.9487 128.455 113.119C129.02 127.57 124.013 140.919 115.274 151.513C113.925 153.149 114.328 155.512 116.092 156.77C136.408 171.263 149.499 193.939 149.499 219.444C149.499 258.476 118.87 290.91 78.5518 297.469C81.9168 298.016 85.3418 298.401 88.8278 298.57C138.445 300.988 179.499 264.633 179.499 219.444C179.498 193.905 166.372 171.201 146.008 156.711V156.711Z" fill="#80D261"/>
<path d="M424.887 107.343C445.321 107.343 461.887 92.0792 461.887 73.2509C461.887 54.4226 445.321 39.1592 424.887 39.1592C404.452 39.1592 387.887 54.4226 387.887 73.2509C387.887 92.0792 404.452 107.343 424.887 107.343Z" fill="#FFD15B"/>
<path d="M424.887 39.1592C419.545 39.1592 414.473 40.2105 409.887 42.0874C422.845 47.3909 431.887 59.3442 431.887 73.2509C431.887 87.1575 422.845 99.1108 409.887 104.414C414.473 106.291 419.545 107.343 424.887 107.343C445.322 107.343 461.887 92.0796 461.887 73.2509C461.887 54.4221 445.321 39.1592 424.887 39.1592Z" fill="#FFC344"/>
<path d="M451.5 127.302H199.499C197.66 127.302 196.246 125.784 196.538 124.111C198.658 111.953 210.097 102.667 223.895 102.667C225.45 102.667 226.985 102.796 228.471 103.026C231.362 86.9057 246.544 74.6069 264.856 74.6069C268.893 74.6069 272.771 75.2132 276.4 76.3152C279.44 56.1541 298.211 40.6221 320.929 40.6221C345.771 40.6221 365.897 59.1753 365.897 82.0647C365.897 83.7822 365.778 85.472 365.558 87.1351C370.762 83.9296 377.022 82.0647 383.761 82.0647C399.142 82.0647 412.052 91.8103 415.62 104.963C419.119 103.494 423.007 102.667 427.104 102.667C440.902 102.667 452.341 111.953 454.461 124.111C454.753 125.784 453.339 127.302 451.5 127.302V127.302Z" fill="#EAF9FA"/>
<path d="M454.462 124.111C452.342 111.953 440.903 102.667 427.105 102.667C423.008 102.667 419.12 103.494 415.621 104.963C412.052 91.8103 399.143 82.0647 383.762 82.0647C377.023 82.0647 370.763 83.9296 365.559 87.1351C365.778 85.4729 365.898 83.7822 365.898 82.0647C365.898 59.1753 345.772 40.6221 320.93 40.6221C312.096 40.6221 303.865 42.979 296.918 47.0341C315.203 52.2934 328.469 68.018 328.469 86.6007V86.679C328.464 88.7669 330.77 90.1232 332.836 89.2636C336.951 87.5516 341.52 86.6007 346.333 86.6007C360.622 86.6007 372.777 95.0103 377.293 106.749C377.841 108.174 379.53 108.928 381.09 108.458C383.793 107.645 386.679 107.202 389.677 107.202C402.961 107.202 414.055 115.81 416.755 127.301H451.502C453.34 127.302 454.754 125.784 454.462 124.111Z" fill="#DCF5F8"/>
<path d="M424.887 23.0349C429.029 23.0349 432.387 19.9409 432.387 16.1245V6.91048C432.387 3.09405 429.029 0 424.887 0C420.745 0 417.387 3.09405 417.387 6.91048V16.1245C417.387 19.9409 420.745 23.0349 424.887 23.0349Z" fill="black"/>
<path d="M468.723 39.7672C470.642 39.7672 472.562 39.0928 474.026 37.7438L481.097 31.2286C484.026 28.5299 484.026 24.1541 481.097 21.4554C478.168 18.7566 473.419 18.7575 470.49 21.4554L463.419 27.9706C460.49 30.6693 460.49 35.0451 463.419 37.7438C464.885 39.0928 466.804 39.7672 468.723 39.7672V39.7672Z" fill="black"/>
<path d="M479.387 73.2513C479.387 77.0677 482.745 80.1618 486.887 80.1618H496.887C501.029 80.1618 504.387 77.0677 504.387 73.2513C504.387 69.4349 501.029 66.3408 496.887 66.3408H486.887C482.745 66.3408 479.387 69.4349 479.387 73.2513Z" fill="black"/>
<path d="M478.652 75.2917C481.581 72.5929 481.58 68.2172 478.652 65.5184L471.581 59.0032C468.651 56.3045 463.904 56.3054 460.974 59.0032C458.045 61.702 458.046 66.0777 460.974 68.7765L468.045 75.2917C469.51 76.6406 471.429 77.3151 473.348 77.3151C475.267 77.3151 477.188 76.6406 478.652 75.2917V75.2917Z" fill="black"/>
<path d="M375.74 37.7423C377.204 39.0912 379.124 39.7666 381.043 39.7666C382.962 39.7666 384.882 39.0921 386.346 37.7423C389.275 35.0435 389.275 30.6678 386.346 27.9699L379.275 21.4547C376.346 18.756 371.597 18.756 368.669 21.4547C365.74 24.1535 365.74 28.5292 368.669 31.2271L375.74 37.7423Z" fill="black"/>
<path d="M199.499 134.213H352.525C356.667 134.213 360.025 131.119 360.025 127.302C360.025 123.486 356.667 120.392 352.525 120.392H205.52C208.732 113.913 215.789 109.578 223.895 109.578C224.978 109.578 226.101 109.667 227.23 109.842C229.193 110.142 231.209 109.716 232.831 108.649C234.452 107.582 235.545 105.964 235.87 104.153C238.222 91.038 250.412 81.5191 264.855 81.5191C267.983 81.5191 271.077 81.977 274.05 82.8809C276.164 83.5213 278.476 83.266 280.364 82.1834C282.252 81.0998 283.521 79.2994 283.827 77.2696C286.383 60.3186 302.333 47.5361 320.928 47.5361C341.588 47.5361 358.396 63.0275 358.396 82.0682C358.396 83.4503 358.3 84.8748 358.112 86.3048C357.758 88.9861 359.133 91.6111 361.63 93.0255C364.126 94.4398 367.289 94.3855 369.726 92.8836C373.872 90.3295 378.725 88.9796 383.76 88.9796C395.412 88.9796 405.521 96.243 408.343 106.643C408.883 108.635 410.356 110.302 412.363 111.193C414.37 112.085 416.703 112.107 418.73 111.255C421.374 110.145 424.19 109.582 427.103 109.582C429.973 109.582 432.707 110.135 435.19 111.124C435.364 111.205 435.544 111.27 435.724 111.337C440.01 113.183 443.486 116.375 445.479 120.395H387.888C383.746 120.395 380.388 123.489 380.388 127.305C380.388 131.122 383.746 134.216 387.888 134.216H451.5C454.58 134.216 457.493 132.976 459.492 130.815C461.488 128.657 462.354 125.815 461.867 123.018C460.676 116.188 457.262 110.17 452.369 105.536C462.975 97.9107 469.389 86.1528 469.389 73.2541C469.389 50.6449 449.427 32.252 424.889 32.252C400.351 32.252 380.389 50.6449 380.389 73.2541C380.389 73.936 380.428 74.615 380.464 75.295C377.945 75.483 375.463 75.8718 373.05 76.4827C370.035 52.4425 347.811 33.7161 320.93 33.7161C297.639 33.7161 277.31 48.0419 270.715 68.0575C268.777 67.8197 266.821 67.7 264.857 67.7C245.358 67.7 228.578 79.1889 222.695 95.7786C205.839 96.2928 191.824 107.589 189.133 123.018C188.646 125.814 189.511 128.656 191.508 130.814C193.506 132.974 196.419 134.213 199.499 134.213V134.213ZM424.888 46.0702C441.155 46.0702 454.388 58.263 454.388 73.2514C454.388 83.5876 448.173 92.8108 438.35 97.4334C434.811 96.3471 431.03 95.7583 427.104 95.7583C424.77 95.7583 422.469 95.9666 420.217 96.3794C415.36 86.9175 406.395 79.8477 395.643 76.8052C395.477 75.6295 395.388 74.4427 395.388 73.2514C395.388 58.263 408.621 46.0702 424.888 46.0702V46.0702Z" fill="black"/>
<path fill-rule="evenodd" clip-rule="evenodd" d="M180 380.537L101 380.537V305.309C122.267 303.778 142.104 295.709 157.835 281.96C176.643 265.524 187 243.322 187 219.446C187 193.601 174.731 169.623 153.222 153.18C162.01 141.417 166.513 127.223 165.951 112.87C164.604 78.4246 134.289 50.1939 96.936 48.5999C85.065 48.094 73.167 50.2768 62.531 54.9124C58.787 56.5442 57.187 60.6647 58.958 64.1144C60.729 67.5641 65.202 69.0374 68.945 67.4065C77.492 63.6813 86.674 61.9961 96.242 62.407C125.857 63.6712 149.892 86.0556 150.96 113.369C151.445 125.757 147.414 137.501 139.302 147.334C135.479 151.97 136.432 158.63 141.425 162.182C160.856 176.007 172 196.879 172 219.446C172 239.492 163.304 258.132 147.513 271.933C134.606 283.213 118.404 289.953 101 291.451V203.461H114.401C118.744 203.461 122.828 201.903 125.901 199.072L138.218 187.724C141.147 185.025 141.147 180.649 138.218 177.951C135.289 175.252 130.54 175.252 127.612 177.951L115.296 189.299C115.057 189.519 114.74 189.641 114.402 189.641H101V104.24C101 100.424 97.642 97.3298 93.5 97.3298C89.358 97.3298 86 100.424 86 104.24V121.414H79.431C78.972 121.414 78.54 121.249 78.215 120.951L65.473 109.21C62.544 106.512 57.795 106.512 54.867 109.21C51.938 111.909 51.938 116.285 54.867 118.983L67.609 130.723C70.767 133.633 74.965 135.235 79.431 135.235H86V233.344H62.971C60.073 233.344 57.345 231.923 55.851 229.634L42.226 208.759C40.091 205.488 35.483 204.431 31.934 206.398C28.384 208.366 27.237 212.611 29.372 215.881L42.997 236.757C47.186 243.176 54.84 247.164 62.971 247.164H86V291.44C47.087 288.039 16.186 257.929 15.034 221.613C14.302 198.521 25.722 176.301 45.583 162.173C50.578 158.619 51.548 151.987 47.744 147.389C40.061 138.104 36 127.017 36 115.328C36 103.93 39.866 93.073 47.181 83.929C49.639 80.8571 48.928 76.5311 45.594 74.2663C42.26 72.0025 37.565 72.6557 35.107 75.7286C25.878 87.2636 21 100.957 21 115.328C21 129.001 25.406 142.021 33.777 153.184C11.759 170.059 -0.798 195.557 0.041 222.018C1.426 265.715 38.979 301.857 86 305.299V380.537H13.5C6.056 380.537 0 386.117 0 392.976C0 408.98 14.131 422 31.5 422H174.744C178.886 422 182.244 418.906 182.244 415.089C182.244 411.273 178.886 408.179 174.744 408.179H31.5C22.907 408.179 15.828 402.096 15.067 394.358H496.932C496.172 402.096 489.092 408.179 480.499 408.179H210.231C206.089 408.179 202.731 411.273 202.731 415.089C202.731 418.906 206.089 422 210.231 422H480.5C497.869 422 512 408.98 512 392.976C512 386.135 505.977 380.567 498.56 380.537H428.965H426.574H180Z" fill="black"/>
<path d="M398.625 311.317V320.834C398.625 333.531 395.605 346.075 389.777 357.581C386.172 364.699 380.589 370.812 373.595 375.302C366.6 379.792 358.442 382.499 349.946 383.148C341.451 383.798 332.92 382.367 325.217 379.001C317.515 375.635 310.915 370.454 306.086 363.981L298.867 354.31L251.75 291.162H242.375V245.092C245.171 245.091 247.908 245.832 250.258 247.226C252.609 248.621 254.473 250.61 255.629 252.956L267.375 276.765L325.469 332.524L342.375 348.749L351.402 311.317H398.625Z" fill="#FFCEB6"/>
<path d="M398.625 276.765V311.317H376.75V305.558H373.625C370.31 305.558 367.131 304.344 364.787 302.184C362.443 300.025 361.125 297.095 361.125 294.041V282.523C361.122 280.254 361.606 278.006 362.547 275.909C363.488 273.812 364.869 271.906 366.611 270.302C368.352 268.697 370.42 267.425 372.697 266.557C374.973 265.69 377.412 265.245 379.875 265.247H386.125C389.44 265.247 392.619 266.461 394.963 268.621C397.308 270.781 398.625 273.71 398.625 276.765Z" fill="#FFCEB6"/>
<path d="M398.625 311.317V320.834C398.625 333.531 395.605 346.075 389.777 357.582C388.187 360.721 386.205 363.679 383.871 366.396L342.375 348.749L351.402 311.317H398.625Z" fill="#CA2C92"/>
<path d="M398.625 276.765V296.92H389.25L376.75 285.403V276.765H362.191C363.485 273.396 365.881 270.48 369.047 268.417C372.214 266.355 375.997 265.247 379.875 265.247H386.125C389.44 265.247 392.619 266.461 394.963 268.621C397.307 270.781 398.625 273.71 398.625 276.765Z" fill="#B1712C"/>
<path d="M383.871 366.396C379.172 371.865 373.145 376.242 366.275 379.174C359.405 382.106 351.884 383.511 344.317 383.276C336.75 383.041 329.349 381.172 322.709 377.821C316.069 374.47 310.375 369.729 306.086 363.981L298.867 354.309L325.469 332.523L342.375 348.749L383.871 366.396Z" fill="#FFC431"/>
<path d="M267.375 276.765L251.75 291.162H242.375V245.092C245.171 245.091 247.908 245.832 250.258 247.226C252.609 248.621 254.473 250.61 255.629 252.956L267.375 276.765Z" fill="#51123B"/>
<path d="M408 265.247H408C412.144 265.247 416.118 266.764 419.049 269.464C421.979 272.164 423.625 275.826 423.625 279.644V322.834H423.625C416.995 322.834 410.636 320.408 405.947 316.088C401.259 311.768 398.625 305.909 398.625 299.799V273.885C398.625 271.594 399.613 269.397 401.371 267.777C403.129 266.157 405.514 265.247 408 265.247V265.247Z" fill="#A36522"/>
<path d="M369.742 307.739L318.133 260.187C316.902 259.053 315.441 258.153 313.832 257.539C312.223 256.925 310.499 256.609 308.758 256.609V256.609C307.017 256.609 305.293 256.925 303.685 257.539C302.076 258.153 300.614 259.053 299.383 260.187C298.152 261.322 297.176 262.668 296.509 264.151C295.843 265.633 295.5 267.221 295.5 268.825V268.825C295.5 270.43 295.843 272.018 296.509 273.5C297.176 274.983 298.152 276.329 299.383 277.464L350.992 325.016C352.223 326.15 353.684 327.05 355.293 327.664C356.902 328.278 358.626 328.594 360.367 328.594H360.367C363.883 328.594 367.255 327.306 369.742 325.016C372.228 322.725 373.625 319.617 373.625 316.377V316.377C373.625 313.138 372.228 310.03 369.742 307.739Z" fill="#FFCEB6"/>
<path d="M408 262.367C406.004 262.368 404.038 262.809 402.265 263.654C400.493 264.499 398.966 265.723 397.812 267.224C396.349 265.697 394.551 264.474 392.536 263.637C390.521 262.8 388.335 262.367 386.125 262.367H379.875C374.075 262.374 368.515 264.499 364.414 268.278C360.313 272.056 358.007 277.179 358 282.523V292.848L320.343 258.151C317.269 255.326 313.104 253.741 308.763 253.743C304.421 253.746 300.259 255.336 297.189 258.165C294.119 260.993 292.393 264.829 292.39 268.829C292.387 272.829 294.108 276.667 297.174 279.499L345.202 323.752L340.59 342.877L269.999 275.125L258.474 251.764C257.065 248.918 254.799 246.505 251.945 244.812C249.091 243.119 245.769 242.216 242.375 242.212C241.965 242.212 241.558 242.286 241.179 242.431C240.8 242.576 240.455 242.788 240.165 243.055C239.875 243.323 239.645 243.64 239.488 243.989C239.331 244.339 239.25 244.713 239.25 245.091V291.161C239.25 291.539 239.331 291.914 239.488 292.263C239.645 292.612 239.875 292.93 240.165 293.197C240.455 293.465 240.8 293.677 241.179 293.821C241.558 293.966 241.965 294.041 242.375 294.041H250.106L303.51 365.613C308.11 371.778 314.228 376.852 321.364 380.422H283V386.18H404.875V380.422H370.464C380.167 375.582 387.929 368.003 392.609 358.797C398.61 346.903 401.729 333.949 401.75 320.832V316.062C404.382 319.075 407.713 321.506 411.498 323.176C415.284 324.846 419.428 325.713 423.625 325.714C424.035 325.714 424.442 325.639 424.821 325.494C425.2 325.35 425.545 325.138 425.835 324.87C426.125 324.603 426.355 324.285 426.512 323.936C426.669 323.587 426.75 323.212 426.75 322.834V279.644C426.744 275.063 424.767 270.672 421.252 267.433C417.737 264.194 412.971 262.373 408 262.367ZM376.75 302.679H373.625C371.139 302.676 368.756 301.765 366.999 300.146C365.241 298.526 364.253 296.331 364.25 294.041V282.523C364.25 281.556 364.355 280.591 364.564 279.644H373.625V285.402C373.625 285.781 373.706 286.155 373.863 286.504C374.02 286.854 374.25 287.171 374.54 287.438L387.04 298.956C387.331 299.223 387.675 299.435 388.054 299.58C388.433 299.725 388.84 299.799 389.25 299.799H395.5V308.437H379.875V305.558C379.875 305.18 379.794 304.805 379.637 304.456C379.48 304.107 379.25 303.789 378.96 303.522C378.67 303.255 378.325 303.042 377.946 302.898C377.567 302.753 377.16 302.679 376.75 302.679ZM379.875 268.126H386.125C388.611 268.129 390.994 269.04 392.751 270.659C394.509 272.278 395.497 274.474 395.5 276.764V294.041H390.544L379.875 284.21V276.764C379.875 276.386 379.794 276.012 379.637 275.662C379.48 275.313 379.25 274.996 378.96 274.728C378.67 274.461 378.325 274.249 377.946 274.104C377.567 273.959 377.16 273.885 376.75 273.885H367.384C368.837 272.097 370.723 270.646 372.891 269.646C375.059 268.647 377.451 268.126 379.875 268.126ZM298.625 268.825C298.625 266.978 299.219 265.173 300.333 263.638C301.446 262.102 303.029 260.906 304.88 260.199C306.732 259.492 308.769 259.307 310.735 259.667C312.701 260.028 314.506 260.917 315.924 262.223L367.532 309.775C369.431 311.526 370.497 313.9 370.497 316.376C370.496 318.851 369.429 321.225 367.529 322.976C365.629 324.726 363.053 325.71 360.366 325.711C357.679 325.711 355.102 324.729 353.201 322.979L301.593 275.427C300.649 274.562 299.901 273.533 299.391 272.4C298.882 271.267 298.621 270.051 298.625 268.825ZM320.965 332.357L299.437 349.99L255.798 291.504L267.329 280.878L320.965 332.357ZM245.5 248.374C247.095 248.793 248.573 249.526 249.831 250.523C251.088 251.52 252.096 252.756 252.785 254.147L263.634 276.139L250.456 288.282H245.5V248.374ZM345.944 380.422C338.605 380.422 331.375 378.778 324.88 375.629C318.384 372.481 312.817 367.924 308.66 362.35L303.006 354.772L325.297 336.515L340.121 350.742C340.391 351.001 340.712 351.21 341.067 351.36L341.065 351.363L378.771 367.398C374.54 371.501 369.449 374.772 363.807 377.01C358.164 379.249 352.088 380.409 345.944 380.422ZM395.5 320.832C395.48 333.107 392.561 345.231 386.945 356.362C385.803 358.617 384.442 360.772 382.879 362.802L345.972 347.107L350.481 328.414C352.911 330.109 355.807 331.145 358.843 331.407C361.878 331.668 364.932 331.144 367.662 329.893C370.392 328.643 372.689 326.715 374.294 324.327C375.9 321.939 376.75 319.186 376.75 316.377C376.75 315.647 376.693 314.918 376.58 314.196H395.5V320.832ZM420.5 319.75C415.296 319.051 410.539 316.651 407.097 312.989C403.654 309.326 401.757 304.644 401.75 299.799V273.885C401.752 272.358 402.411 270.894 403.583 269.815C404.754 268.735 406.343 268.128 408 268.126C411.314 268.13 414.491 269.344 416.835 271.503C419.178 273.663 420.496 276.59 420.5 279.644V319.75Z" fill="black"/>
<path d="M276.75 380.422H270.5V386.181H276.75V380.422Z" fill="black"/>
<path d="M417.375 380.422H411.125V386.181H417.375V380.422Z" fill="black"/>
<path d="M568.124 40.3354C568.124 44.1847 567.443 47.5596 566.083 50.46C564.722 53.3604 562.77 55.5983 560.228 57.1738C557.704 58.7493 554.803 59.5371 551.527 59.5371C548.286 59.5371 545.395 58.7583 542.853 57.2007C540.31 55.6431 538.341 53.423 536.944 50.5405C535.548 47.6401 534.841 44.3101 534.823 40.5503V38.6167C534.823 34.7674 535.512 31.3836 536.891 28.4653C538.287 25.5291 540.248 23.2822 542.772 21.7246C545.314 20.1491 548.215 19.3613 551.473 19.3613C554.732 19.3613 557.623 20.1491 560.147 21.7246C562.69 23.2822 564.65 25.5291 566.029 28.4653C567.425 31.3836 568.124 34.7585 568.124 38.5898V40.3354ZM559.959 38.563C559.959 34.4631 559.225 31.3478 557.757 29.2173C556.289 27.0868 554.194 26.0215 551.473 26.0215C548.77 26.0215 546.684 27.0778 545.216 29.1904C543.748 31.2852 543.005 34.3646 542.987 38.4287V40.3354C542.987 44.328 543.721 47.4253 545.189 49.6274C546.657 51.8296 548.77 52.9307 551.527 52.9307C554.23 52.9307 556.307 51.8743 557.757 49.7617C559.208 47.6312 559.942 44.5339 559.959 40.4697V38.563ZM545.296 95.2231V109H537.24V69.8984H552.494C555.43 69.8984 558.008 70.4355 560.228 71.5098C562.466 72.584 564.185 74.1147 565.384 76.1021C566.584 78.0715 567.184 80.3184 567.184 82.8428C567.184 86.6742 565.868 89.6999 563.236 91.9199C560.622 94.1221 556.996 95.2231 552.359 95.2231H545.296ZM545.296 88.6973H552.494C554.624 88.6973 556.244 88.196 557.354 87.1934C558.482 86.1908 559.046 84.7585 559.046 82.8965C559.046 80.9808 558.482 79.4321 557.354 78.2505C556.227 77.0688 554.669 76.4601 552.682 76.4243H545.296V88.6973ZM563.048 142.054H547.579V152.528H565.733V159H539.522V119.898H565.68V126.424H547.579V135.743H563.048V142.054ZM567.372 209H559.315L543.631 183.272V209H535.575V169.898H543.631L559.342 195.68V169.898H567.372V209ZM558.563 300.943H544.437L541.751 309H533.185L547.74 269.898H555.206L569.842 309H561.275L558.563 300.943ZM546.612 294.417H556.388L551.473 279.781L546.612 294.417ZM555.528 359H547.472V319.898H555.528V359ZM551.903 394.686H545.484V409H537.428V369.898H551.957C556.576 369.898 560.139 370.928 562.645 372.987C565.152 375.046 566.405 377.955 566.405 381.715C566.405 384.382 565.823 386.611 564.659 388.402C563.513 390.174 561.768 391.589 559.422 392.645L567.882 408.624V409H559.234L551.903 394.686ZM545.484 388.16H551.983C554.007 388.16 555.573 387.65 556.683 386.629C557.793 385.591 558.348 384.168 558.348 382.359C558.348 380.515 557.82 379.065 556.764 378.009C555.725 376.952 554.123 376.424 551.957 376.424H545.484V388.16Z" fill="black"/>
</svg>
